<svg xmlns="http://www.w3.org/2000/svg" xmlns:xlink="http://www.w3.org/1999/xlink" width="41.673" height="41.673" viewBox="0 0 41.673 41.673"><defs><clipPath id="a"><path d="M0,0H41.673V41.673H0Z" fill="#102c52"/></clipPath></defs><g clip-path="url(#a)"><path d="M0,20.953a21.084,21.084,0,0,0,17.364,20.72V26.624H12.155V20.836h5.209V16.206c0-5.209,3.356-8.1,8.1-8.1a31.436,31.436,0,0,1,4.629.462v5.325H27.435c-2.547,0-3.125,1.273-3.125,2.895v4.051h5.556l-.925,5.787H24.309V41.673A20.995,20.995,0,0,0,20.836,0,20.956,20.956,0,0,0,0,20.953Z" fill="#102c52" fill-rule="evenodd"/></g></svg>