<svg xmlns="http://www.w3.org/2000/svg" width="41.673" height="41.673" viewBox="0 0 41.673 41.673"><path d="M13.246,1.125c2.222-.1,2.93-.125,8.59-.125s6.368.025,8.588.125a15.334,15.334,0,0,1,5.061.968,10.666,10.666,0,0,1,6.092,6.094,15.324,15.324,0,0,1,.97,5.058c.1,2.226.125,2.934.125,8.592s-.025,6.368-.125,8.59a15.276,15.276,0,0,1-.97,5.058,10.638,10.638,0,0,1-6.092,6.094,15.324,15.324,0,0,1-5.058.97c-2.224.1-2.932.125-8.592.125s-6.368-.025-8.59-.125a15.276,15.276,0,0,1-5.058-.97,10.223,10.223,0,0,1-3.692-2.4,10.214,10.214,0,0,1-2.4-3.69,15.379,15.379,0,0,1-.968-5.058C1.023,28.2,1,27.494,1,21.836s.025-6.368.125-8.588a15.334,15.334,0,0,1,.968-5.061A10.221,10.221,0,0,1,4.5,4.5a10.214,10.214,0,0,1,3.688-2.4,15.379,15.379,0,0,1,5.058-.968Zm17.01,3.751c-2.2-.1-2.856-.121-8.42-.121s-6.223.021-8.42.121a11.516,11.516,0,0,0-3.87.718,6.47,6.47,0,0,0-2.4,1.557,6.463,6.463,0,0,0-1.557,2.4,11.516,11.516,0,0,0-.718,3.87c-.1,2.2-.121,2.856-.121,8.42s.021,6.223.121,8.42a11.517,11.517,0,0,0,.718,3.87,6.468,6.468,0,0,0,1.557,2.4,6.468,6.468,0,0,0,2.4,1.557,11.517,11.517,0,0,0,3.87.718c2.2.1,2.855.121,8.42.121s6.223-.021,8.42-.121a11.517,11.517,0,0,0,3.87-.718,6.881,6.881,0,0,0,3.953-3.953,11.517,11.517,0,0,0,.718-3.87c.1-2.2.121-2.856.121-8.42s-.021-6.223-.121-8.42a11.517,11.517,0,0,0-.718-3.87,6.47,6.47,0,0,0-1.557-2.4,6.465,6.465,0,0,0-2.4-1.557,11.517,11.517,0,0,0-3.87-.718ZM19.175,28.26a6.952,6.952,0,1,0-4.289-6.423,6.95,6.95,0,0,0,4.289,6.423Zm-4.912-14a10.71,10.71,0,1,1,0,15.146,10.71,10.71,0,0,1,0-15.146Zm20.658-1.542a2.533,2.533,0,1,0-3.529-.051,2.533,2.533,0,0,0,3.529.051Z" transform="translate(-1 -1)" fill="#102c52" fill-rule="evenodd"/></svg>