<svg width="82" height="82" viewBox="0 0 82 82" fill="none" xmlns="http://www.w3.org/2000/svg">
<path d="M52.7875 51.4208L56.5458 47.8333L49.3708 40.6583C49.9972 39.6903 50.4676 38.6653 50.7819 37.5833C51.0962 36.5014 51.2523 35.3625 51.25 34.1667C51.25 30.8069 50.069 27.9734 47.7069 25.666C45.3449 23.3586 42.5398 22.2061 39.2917 22.2083C36.0435 22.2106 33.2385 23.3643 30.8764 25.6694C28.5144 27.9745 27.3333 30.8069 27.3333 34.1667C27.3333 37.5264 28.5155 40.3599 30.8798 42.6673C33.2442 44.9747 36.0481 46.1273 39.2917 46.125C40.4875 46.125 41.6127 45.969 42.6673 45.6569C43.7219 45.3449 44.7606 44.8745 45.7833 44.2458L52.7875 51.4208ZM39.2917 41C37.4125 41 35.8044 40.3315 34.4673 38.9944C33.1303 37.6574 32.4606 36.0481 32.4583 34.1667C32.456 32.2852 33.1257 30.6771 34.4673 29.3423C35.8089 28.0076 37.417 27.3379 39.2917 27.3333C41.1139 27.3333 42.7083 28.003 44.075 29.3423C45.4417 30.6817 46.125 32.2898 46.125 34.1667C46.125 36.0436 45.4565 37.6528 44.1194 38.9944C42.7824 40.336 41.1731 41.0046 39.2917 41ZM13.6667 61.5C11.7875 61.5 10.1794 60.8315 8.84232 59.4944C7.50527 58.1574 6.8356 56.5481 6.83332 54.6667V17.0833C6.83332 15.2042 7.50299 13.5961 8.84232 12.259C10.1817 10.9219 11.7898 10.2523 13.6667 10.25H68.3333C70.2125 10.25 71.8217 10.9197 73.1611 12.259C74.5004 13.5983 75.1689 15.2064 75.1667 17.0833V54.6667C75.1667 56.5458 74.4981 58.1551 73.1611 59.4944C71.824 60.8338 70.2148 61.5023 68.3333 61.5H13.6667ZM13.6667 54.6667H68.3333V17.0833H13.6667V54.6667ZM3.41666 71.75V64.9167H78.5833V71.75H3.41666Z" fill="white"/>
</svg>
