<svg width="82" height="82" viewBox="0 0 82 82" fill="none" xmlns="http://www.w3.org/2000/svg">
<path d="M10.25 34.1667H13.6667C14.6347 34.1667 15.4467 34.4947 16.1027 35.1507C16.7587 35.8067 17.0856 36.6176 17.0833 37.5833C17.081 38.5491 16.753 39.3612 16.0993 40.0194C15.4456 40.6777 14.6347 41.0046 13.6667 41H10.25C9.28194 41 8.47105 40.672 7.81733 40.016C7.1636 39.36 6.8356 38.5491 6.83332 37.5833C6.83105 36.6176 7.15905 35.8067 7.81733 35.1507C8.4756 34.4947 9.28649 34.1667 10.25 34.1667ZM16.0583 52.6167L18.45 50.225C19.1333 49.5417 19.9305 49.2148 20.8417 49.2444C21.7528 49.274 22.55 49.6009 23.2333 50.225C23.9167 50.9083 24.2731 51.7204 24.3027 52.6611C24.3324 53.6018 24.0044 54.4127 23.3187 55.0938L20.9271 57.4854C20.2437 58.1688 19.4329 58.4968 18.4944 58.4694C17.556 58.4421 16.7439 58.0856 16.0583 57.4C15.4319 56.7167 15.1039 55.9195 15.0743 55.0083C15.0447 54.0972 15.3727 53.3 16.0583 52.6167ZM18.45 24.9417L16.0583 22.55C15.375 21.8667 15.047 21.0695 15.0743 20.1583C15.1017 19.2472 15.4297 18.45 16.0583 17.7667C16.7417 17.0833 17.5537 16.728 18.4944 16.7007C19.4351 16.6733 20.246 17.0002 20.9271 17.6813L23.3187 20.0729C24.0021 20.7563 24.3301 21.5683 24.3027 22.509C24.2754 23.4497 23.9189 24.2606 23.2333 24.9417C22.55 25.5681 21.7528 25.8961 20.8417 25.9257C19.9305 25.9553 19.1333 25.6273 18.45 24.9417ZM59.1083 65.9417L45.2708 52.1042L42.7083 59.7917C42.5944 60.1903 42.3815 60.4898 42.0694 60.6903C41.7574 60.8907 41.4294 60.9898 41.0854 60.9875C40.7415 60.9852 40.4135 60.8713 40.1014 60.6458C39.7894 60.4203 39.5764 60.1072 39.4625 59.7063L32.1167 35.2771C32.0028 34.8215 32.0176 34.366 32.1611 33.9104C32.3046 33.4549 32.5175 33.0847 32.8 32.8C33.0824 32.5153 33.4526 32.3023 33.9104 32.1611C34.3682 32.0199 34.8238 32.0051 35.2771 32.1167L59.8771 39.4625C60.2757 39.5764 60.5752 39.7905 60.7757 40.1048C60.9761 40.4192 61.0752 40.746 61.0729 41.0854C61.0706 41.4248 60.9852 41.7528 60.8167 42.0694C60.6481 42.386 60.3634 42.599 59.9625 42.7083L52.275 45.4417L65.9417 59.1083C66.625 59.7917 66.9667 60.5889 66.9667 61.5C66.9667 62.4111 66.625 63.2083 65.9417 63.8917L63.8917 65.9417C63.2083 66.625 62.4111 66.9667 61.5 66.9667C60.5889 66.9667 59.7917 66.625 59.1083 65.9417ZM34.1667 17.0833V13.6667C34.1667 12.6986 34.4947 11.8877 35.1507 11.234C35.8067 10.5803 36.6175 10.2523 37.5833 10.25C38.5491 10.2477 39.3611 10.5757 40.0194 11.234C40.6777 11.8923 41.0046 12.7032 41 13.6667V17.0833C41 18.0514 40.672 18.8634 40.016 19.5194C39.36 20.1754 38.5491 20.5023 37.5833 20.5C36.6175 20.4977 35.8067 20.1697 35.1507 19.516C34.4947 18.8623 34.1667 18.0514 34.1667 17.0833ZM51.8479 20.0729L54.325 17.5958C54.9514 16.9695 55.7349 16.6415 56.6757 16.6118C57.6164 16.5822 58.4273 16.9102 59.1083 17.5958C59.7347 18.2222 60.0627 19.0058 60.0923 19.9465C60.1219 20.8872 59.8224 21.6981 59.1937 22.3792L56.7167 24.9417C56.0903 25.625 55.3067 25.953 54.366 25.9257C53.4253 25.8983 52.6144 25.5703 51.9333 24.9417C51.25 24.2583 50.8947 23.4475 50.8673 22.509C50.84 21.5706 51.1669 20.7585 51.8479 20.0729Z" fill="white"/>
</svg>
