<svg width="47" height="44" viewBox="0 0 47 44" fill="none" xmlns="http://www.w3.org/2000/svg">
<path fill-rule="evenodd" clip-rule="evenodd" d="M17 21.5C17 21.2538 17.0856 21.0176 17.2379 20.8435C17.3903 20.6694 17.5969 20.5716 17.8124 20.5716H27.225L23.7365 16.5869C23.5839 16.4126 23.4982 16.1761 23.4982 15.9296C23.4982 15.683 23.5839 15.4466 23.7365 15.2723C23.889 15.0979 24.0959 15 24.3117 15C24.5274 15 24.7343 15.0979 24.8869 15.2723L29.7613 20.8427C29.837 20.9289 29.897 21.0314 29.938 21.1442C29.9789 21.257 30 21.3779 30 21.5C30 21.6221 29.9789 21.743 29.938 21.8558C29.897 21.9686 29.837 22.0711 29.7613 22.1573L24.8869 27.7277C24.7343 27.9021 24.5274 28 24.3117 28C24.0959 28 23.889 27.9021 23.7365 27.7277C23.5839 27.5534 23.4982 27.317 23.4982 27.0704C23.4982 26.8239 23.5839 26.5874 23.7365 26.4131L27.225 22.4284H17.8124C17.5969 22.4284 17.3903 22.3306 17.2379 22.1565C17.0856 21.9824 17 21.7462 17 21.5Z" fill="white"/>
<path d="M46.5798 21.9075C46.5798 33.7998 36.2817 43.4737 23.536 43.4737C10.7903 43.4737 0.492227 33.7998 0.492227 21.9075C0.492227 10.0152 10.7903 0.341226 23.536 0.341226C36.2817 0.341226 46.5798 10.0152 46.5798 21.9075Z" stroke="#FFFEFE" stroke-width="0.6075"/>
</svg>
