<svg width="26" height="29" viewBox="0 0 26 29" fill="none" xmlns="http://www.w3.org/2000/svg">
<path d="M7.952 18.208C5.792 18.208 4.384 17.312 3.472 16.224L4.256 15.28C5.136 16.32 6.304 16.992 7.872 16.992C9.376 16.992 10.592 16.16 10.592 14.816C10.592 13.408 9.44 12.48 6.528 12.48V11.36C9.152 11.36 10.272 10.32 10.272 9.168C10.272 8.064 9.392 7.264 7.84 7.264C6.64 7.264 5.536 7.776 4.608 8.752L3.792 7.84C4.912 6.768 6.256 6.064 7.888 6.064C10.224 6.064 11.68 7.264 11.68 9.024C11.68 10.432 10.816 11.424 9.424 11.824V11.888C10.912 12.16 12 13.264 12 14.896C12 16.944 10.176 18.208 7.952 18.208Z" fill="black"/>
<line x1="9.60117" y1="28.6984" x2="25.1012" y2="8.19845" stroke="black"/>
</svg>
